<svg xmlns="http://www.w3.org/2000/svg" xmlns:xlink="http://www.w3.org/1999/xlink" width="500" zoomAndPan="magnify" viewBox="0 0 375 374.999991" height="500" preserveAspectRatio="xMidYMid meet" version="1.2"><defs><clipPath id="fc49c3ba3e"><path d="M 35 166 L 206 166 L 206 339 L 35 339 Z M 35 166 "/></clipPath><clipPath id="c742acc08a"><path d="M 0.0117188 193.226562 L 120.929688 81.46875 L 290.261719 264.675781 L 169.34375 376.433594 Z M 0.0117188 193.226562 "/></clipPath><clipPath id="110b0b0f96"><path d="M 0.0117188 193.226562 L 120.929688 81.46875 L 290.261719 264.675781 L 169.34375 376.433594 Z M 0.0117188 193.226562 "/></clipPath><clipPath id="ce49f2e9a2"><path d="M 123 85 L 294 85 L 294 258 L 123 258 Z M 123 85 "/></clipPath><clipPath id="3b2e08dc4f"><path d="M 87.519531 112.347656 L 208.4375 0.585938 L 377.769531 183.792969 L 256.851562 295.550781 Z M 87.519531 112.347656 "/></clipPath><clipPath id="7321eddc21"><path d="M 87.519531 112.347656 L 208.4375 0.585938 L 377.769531 183.792969 L 256.851562 295.550781 Z M 87.519531 112.347656 "/></clipPath></defs><g id="6320b67dc2"><rect x="0" width="375" y="0" height="374.999991" style="fill:#ffffff;fill-opacity:1;stroke:none;"/><rect x="0" width="375" y="0" height="374.999991" style="fill:#ffffff;fill-opacity:1;stroke:none;"/><g clip-rule="nonzero" clip-path="url(#fc49c3ba3e)"><g clip-rule="nonzero" clip-path="url(#c742acc08a)"><g clip-rule="nonzero" clip-path="url(#110b0b0f96)"><path style=" stroke:none;fill-rule:nonzero;fill:#111827;fill-opacity:1;" d="M 205.664062 173.152344 L 58.601562 166.617188 C 30.195312 165.355469 25.398438 220.6875 59.054688 221.601562 L 150.566406 224.078125 L 143.574219 316.160156 C 141.449219 344.199219 196.132812 347.164062 197.695312 318.664062 Z M 205.664062 173.152344 "/></g></g></g><g clip-rule="nonzero" clip-path="url(#ce49f2e9a2)"><g clip-rule="nonzero" clip-path="url(#3b2e08dc4f)"><g clip-rule="nonzero" clip-path="url(#7321eddc21)"><path style=" stroke:none;fill-rule:nonzero;fill:#c084fc;fill-opacity:1;" d="M 293.171875 92.269531 L 146.109375 85.734375 C 117.703125 84.472656 112.90625 139.804688 146.5625 140.71875 L 238.074219 143.199219 L 231.082031 235.28125 C 228.957031 263.320312 283.640625 266.28125 285.203125 237.785156 Z M 293.171875 92.269531 "/></g></g></g></g></svg>