<svg xmlns="http://www.w3.org/2000/svg" xmlns:xlink="http://www.w3.org/1999/xlink" width="400" zoomAndPan="magnify" viewBox="0 0 300 74.999997" height="100" preserveAspectRatio="xMidYMid meet" version="1.2"><defs><clipPath id="1c70607d51"><path d="M 253 13 L 279 13 L 279 40 L 253 40 Z M 253 13 "/></clipPath><clipPath id="79481ce2a8"><path d="M 247.765625 17.75 L 266.097656 0.804688 L 291.199219 27.964844 L 272.867188 44.90625 Z M 247.765625 17.75 "/></clipPath><clipPath id="f28adb1655"><path d="M 247.765625 17.75 L 266.097656 0.804688 L 291.199219 27.964844 L 272.867188 44.90625 Z M 247.765625 17.75 "/></clipPath><clipPath id="8887769cbc"><path d="M 266 1 L 292 1 L 292 28 L 266 28 Z M 266 1 "/></clipPath><clipPath id="481b05c12b"><path d="M 260.921875 5.59375 L 279.25 -11.351562 L 304.351562 15.808594 L 286.019531 32.75 Z M 260.921875 5.59375 "/></clipPath><clipPath id="c1ebbbac1f"><path d="M 260.921875 5.59375 L 279.25 -11.351562 L 304.351562 15.808594 L 286.019531 32.75 Z M 260.921875 5.59375 "/></clipPath></defs><g id="3df1dab1b9"><g clip-rule="nonzero" clip-path="url(#1c70607d51)"><g clip-rule="nonzero" clip-path="url(#79481ce2a8)"><g clip-rule="nonzero" clip-path="url(#f28adb1655)"><path style=" stroke:none;fill-rule:nonzero;fill:#111827;fill-opacity:1;" d="M 278.65625 14.738281 L 256.570312 13.753906 C 252.300781 13.566406 251.582031 21.875 256.636719 22.015625 L 270.382812 22.386719 L 269.332031 36.21875 C 269.011719 40.429688 277.226562 40.875 277.460938 36.59375 Z M 278.65625 14.738281 "/></g></g></g><g clip-rule="nonzero" clip-path="url(#8887769cbc)"><g clip-rule="nonzero" clip-path="url(#481b05c12b)"><g clip-rule="nonzero" clip-path="url(#c1ebbbac1f)"><path style=" stroke:none;fill-rule:nonzero;fill:#c084fc;fill-opacity:1;" d="M 291.8125 2.578125 L 269.722656 1.597656 C 265.457031 1.40625 264.734375 9.71875 269.789062 9.855469 L 283.535156 10.230469 L 282.484375 24.058594 C 282.167969 28.269531 290.378906 28.714844 290.613281 24.433594 Z M 291.8125 2.578125 "/></g></g></g><g style="fill:#ffffff;fill-opacity:1;"><g transform="translate(4.531968, 53.300594)"><path style="stroke:none" d="M 23.3125 -25.515625 C 24.175781 -25.515625 24.867188 -25.269531 25.390625 -24.78125 C 25.910156 -24.300781 26.171875 -23.675781 26.171875 -22.90625 L 26.171875 -2.609375 C 26.171875 -1.835938 25.910156 -1.207031 25.390625 -0.71875 C 24.867188 -0.238281 24.175781 0 23.3125 0 C 22.476562 0 21.828125 -0.191406 21.359375 -0.578125 C 20.890625 -0.960938 20.601562 -1.472656 20.5 -2.109375 C 19.363281 -1.203125 18.09375 -0.539062 16.6875 -0.125 C 15.289062 0.289062 13.957031 0.5 12.6875 0.5 C 10.28125 0.5 8.195312 -0.0507812 6.4375 -1.15625 C 4.6875 -2.257812 3.34375 -3.8125 2.40625 -5.8125 C 1.46875 -7.820312 1 -10.160156 1 -12.828125 C 1 -15.429688 1.515625 -17.71875 2.546875 -19.6875 C 3.585938 -21.664062 5.035156 -23.210938 6.890625 -24.328125 C 8.742188 -25.453125 10.890625 -26.015625 13.328125 -26.015625 C 14.398438 -26.015625 15.585938 -25.8125 16.890625 -25.40625 C 18.191406 -25.007812 19.394531 -24.378906 20.5 -23.515625 C 20.632812 -24.109375 20.9375 -24.585938 21.40625 -24.953125 C 21.875 -25.328125 22.507812 -25.515625 23.3125 -25.515625 Z M 13.28125 -4.5625 C 14.75 -4.5625 16.164062 -4.882812 17.53125 -5.53125 C 18.90625 -6.1875 19.878906 -7.148438 20.453125 -8.421875 L 20.453125 -17.09375 C 19.816406 -18.332031 18.863281 -19.285156 17.59375 -19.953125 C 16.320312 -20.617188 15.035156 -20.953125 13.734375 -20.953125 C 11.628906 -20.953125 9.929688 -20.179688 8.640625 -18.640625 C 7.359375 -17.109375 6.71875 -15.15625 6.71875 -12.78125 C 6.71875 -10.3125 7.316406 -8.320312 8.515625 -6.8125 C 9.722656 -5.3125 11.3125 -4.5625 13.28125 -4.5625 Z M 13.28125 -4.5625 "/></g></g><g style="fill:#ffffff;fill-opacity:1;"><g transform="translate(33.501688, 53.300594)"><path style="stroke:none" d="M 15.34375 -26.015625 C 17.8125 -26.015625 19.972656 -25.46875 21.828125 -24.375 C 23.679688 -23.289062 25.117188 -21.769531 26.140625 -19.8125 C 27.160156 -17.863281 27.671875 -15.601562 27.671875 -13.03125 C 27.671875 -10.351562 27.160156 -7.992188 26.140625 -5.953125 C 25.117188 -3.921875 23.707031 -2.335938 21.90625 -1.203125 C 20.101562 -0.0664062 17.976562 0.5 15.53125 0.5 C 14.394531 0.5 13.160156 0.300781 11.828125 -0.09375 C 10.492188 -0.5 9.273438 -1.066406 8.171875 -1.796875 L 8.171875 5.859375 C 8.171875 6.703125 7.878906 7.335938 7.296875 7.765625 C 6.710938 8.203125 6.066406 8.421875 5.359375 8.421875 C 4.628906 8.421875 3.96875 8.203125 3.375 7.765625 C 2.789062 7.335938 2.5 6.703125 2.5 5.859375 L 2.5 -22.953125 C 2.5 -23.753906 2.757812 -24.378906 3.28125 -24.828125 C 3.800781 -25.285156 4.507812 -25.515625 5.40625 -25.515625 C 6.914062 -25.515625 7.800781 -24.929688 8.0625 -23.765625 C 9.238281 -24.597656 10.460938 -25.179688 11.734375 -25.515625 C 13.003906 -25.847656 14.207031 -26.015625 15.34375 -26.015625 Z M 15.390625 -4.5625 C 17.359375 -4.5625 18.941406 -5.335938 20.140625 -6.890625 C 21.347656 -8.441406 21.953125 -10.472656 21.953125 -12.984375 C 21.953125 -15.359375 21.304688 -17.28125 20.015625 -18.75 C 18.734375 -20.21875 17.039062 -20.953125 14.9375 -20.953125 C 13.601562 -20.953125 12.300781 -20.609375 11.03125 -19.921875 C 9.757812 -19.234375 8.804688 -18.257812 8.171875 -17 L 8.171875 -8.671875 C 8.703125 -7.367188 9.648438 -6.359375 11.015625 -5.640625 C 12.390625 -4.921875 13.847656 -4.5625 15.390625 -4.5625 Z M 15.390625 -4.5625 "/></g></g><g style="fill:#ffffff;fill-opacity:1;"><g transform="translate(62.671886, 53.300594)"><path style="stroke:none" d="M 15.34375 -26.015625 C 17.8125 -26.015625 19.972656 -25.46875 21.828125 -24.375 C 23.679688 -23.289062 25.117188 -21.769531 26.140625 -19.8125 C 27.160156 -17.863281 27.671875 -15.601562 27.671875 -13.03125 C 27.671875 -10.351562 27.160156 -7.992188 26.140625 -5.953125 C 25.117188 -3.921875 23.707031 -2.335938 21.90625 -1.203125 C 20.101562 -0.0664062 17.976562 0.5 15.53125 0.5 C 14.394531 0.5 13.160156 0.300781 11.828125 -0.09375 C 10.492188 -0.5 9.273438 -1.066406 8.171875 -1.796875 L 8.171875 5.859375 C 8.171875 6.703125 7.878906 7.335938 7.296875 7.765625 C 6.710938 8.203125 6.066406 8.421875 5.359375 8.421875 C 4.628906 8.421875 3.96875 8.203125 3.375 7.765625 C 2.789062 7.335938 2.5 6.703125 2.5 5.859375 L 2.5 -22.953125 C 2.5 -23.753906 2.757812 -24.378906 3.28125 -24.828125 C 3.800781 -25.285156 4.507812 -25.515625 5.40625 -25.515625 C 6.914062 -25.515625 7.800781 -24.929688 8.0625 -23.765625 C 9.238281 -24.597656 10.460938 -25.179688 11.734375 -25.515625 C 13.003906 -25.847656 14.207031 -26.015625 15.34375 -26.015625 Z M 15.390625 -4.5625 C 17.359375 -4.5625 18.941406 -5.335938 20.140625 -6.890625 C 21.347656 -8.441406 21.953125 -10.472656 21.953125 -12.984375 C 21.953125 -15.359375 21.304688 -17.28125 20.015625 -18.75 C 18.734375 -20.21875 17.039062 -20.953125 14.9375 -20.953125 C 13.601562 -20.953125 12.300781 -20.609375 11.03125 -19.921875 C 9.757812 -19.234375 8.804688 -18.257812 8.171875 -17 L 8.171875 -8.671875 C 8.703125 -7.367188 9.648438 -6.359375 11.015625 -5.640625 C 12.390625 -4.921875 13.847656 -4.5625 15.390625 -4.5625 Z M 15.390625 -4.5625 "/></g></g><g style="fill:#ffffff;fill-opacity:1;"><g transform="translate(91.842083, 53.300594)"><path style="stroke:none" d="M 7.46875 -2.5 C 7.46875 -1.832031 7.191406 -1.25 6.640625 -0.75 C 6.085938 -0.25 5.410156 0 4.609375 0 C 3.773438 0 3.085938 -0.25 2.546875 -0.75 C 2.015625 -1.25 1.75 -1.832031 1.75 -2.5 L 1.75 -29.921875 C 1.75 -30.585938 2.015625 -31.171875 2.546875 -31.671875 C 3.085938 -32.179688 3.773438 -32.4375 4.609375 -32.4375 C 5.410156 -32.4375 6.085938 -32.179688 6.640625 -31.671875 C 7.191406 -31.171875 7.46875 -30.585938 7.46875 -29.921875 Z M 7.46875 -2.5 "/></g></g><g style="fill:#ffffff;fill-opacity:1;"><g transform="translate(100.061699, 53.300594)"><path style="stroke:none" d="M 23.359375 -25.515625 C 24.222656 -25.515625 24.960938 -25.140625 25.578125 -24.390625 C 26.203125 -23.640625 26.332031 -22.757812 25.96875 -21.75 L 11.328125 6.96875 C 10.992188 7.601562 10.566406 8.101562 10.046875 8.46875 C 9.523438 8.832031 8.984375 9.015625 8.421875 9.015625 C 7.847656 9.015625 7.316406 8.820312 6.828125 8.4375 C 6.347656 8.0625 6.015625 7.570312 5.828125 6.96875 C 5.648438 6.363281 5.726562 5.726562 6.0625 5.0625 L 9.875 -2.453125 L 0 -21.546875 C -0.300781 -22.222656 -0.34375 -22.859375 -0.125 -23.453125 C 0.09375 -24.054688 0.453125 -24.550781 0.953125 -24.9375 C 1.453125 -25.320312 2.003906 -25.515625 2.609375 -25.515625 C 3.140625 -25.515625 3.65625 -25.347656 4.15625 -25.015625 C 4.65625 -24.679688 5.023438 -24.242188 5.265625 -23.703125 L 12.984375 -8.625 L 20.703125 -23.765625 C 20.929688 -24.296875 21.28125 -24.71875 21.75 -25.03125 C 22.21875 -25.351562 22.753906 -25.515625 23.359375 -25.515625 Z M 23.359375 -25.515625 "/></g></g><g style="fill:#ffffff;fill-opacity:1;"><g transform="translate(126.174516, 53.300594)"><path style="stroke:none" d="M 11.53125 -28.265625 C 10.925781 -28.265625 10.375 -28.0625 9.875 -27.65625 C 9.375 -27.257812 9.125 -26.644531 9.125 -25.8125 L 9.125 -24.96875 L 12.4375 -24.96875 C 13.269531 -24.96875 13.878906 -24.710938 14.265625 -24.203125 C 14.648438 -23.703125 14.84375 -23.171875 14.84375 -22.609375 C 14.84375 -22.003906 14.648438 -21.457031 14.265625 -20.96875 C 13.878906 -20.488281 13.269531 -20.25 12.4375 -20.25 L 9.125 -20.25 L 9.125 -2.5 C 9.125 -1.664062 8.820312 -1.039062 8.21875 -0.625 C 7.613281 -0.207031 6.960938 0 6.265625 0 C 5.523438 0 4.863281 -0.207031 4.28125 -0.625 C 3.695312 -1.039062 3.40625 -1.664062 3.40625 -2.5 L 3.40625 -20.25 L 2.109375 -20.25 C 1.273438 -20.25 0.640625 -20.488281 0.203125 -20.96875 C -0.234375 -21.457031 -0.453125 -22.003906 -0.453125 -22.609375 C -0.453125 -23.171875 -0.234375 -23.703125 0.203125 -24.203125 C 0.640625 -24.710938 1.273438 -24.96875 2.109375 -24.96875 L 3.40625 -24.96875 L 3.40625 -25.8125 C 3.40625 -27.382812 3.78125 -28.710938 4.53125 -29.796875 C 5.289062 -30.878906 6.28125 -31.703125 7.5 -32.265625 C 8.71875 -32.835938 9.992188 -33.125 11.328125 -33.125 C 12.296875 -33.125 13.25 -32.988281 14.1875 -32.71875 C 15.125 -32.457031 15.972656 -31.992188 16.734375 -31.328125 C 17.367188 -30.753906 17.675781 -30.132812 17.65625 -29.46875 C 17.644531 -28.800781 17.414062 -28.21875 16.96875 -27.71875 C 16.519531 -27.21875 15.957031 -26.914062 15.28125 -26.8125 C 14.613281 -26.71875 13.945312 -26.96875 13.28125 -27.5625 C 12.8125 -28.03125 12.226562 -28.265625 11.53125 -28.265625 Z M 11.53125 -28.265625 "/></g></g><g style="fill:#ffffff;fill-opacity:1;"><g transform="translate(141.812043, 53.300594)"><path style="stroke:none" d="M 14.328125 -26.015625 C 17.003906 -26.015625 19.34375 -25.453125 21.34375 -24.328125 C 23.351562 -23.210938 24.910156 -21.648438 26.015625 -19.640625 C 27.117188 -17.640625 27.671875 -15.300781 27.671875 -12.625 C 27.640625 -10.019531 27.0625 -7.734375 25.9375 -5.765625 C 24.820312 -3.796875 23.269531 -2.257812 21.28125 -1.15625 C 19.289062 -0.0507812 16.972656 0.5 14.328125 0.5 C 11.722656 0.5 9.414062 -0.0507812 7.40625 -1.15625 C 5.40625 -2.257812 3.84375 -3.796875 2.71875 -5.765625 C 1.601562 -7.734375 1.03125 -10.019531 1 -12.625 C 1 -15.300781 1.554688 -17.640625 2.671875 -19.640625 C 3.796875 -21.648438 5.359375 -23.210938 7.359375 -24.328125 C 9.367188 -25.453125 11.691406 -26.015625 14.328125 -26.015625 Z M 14.328125 -4.515625 C 16.609375 -4.515625 18.421875 -5.265625 19.765625 -6.765625 C 21.117188 -8.265625 21.796875 -10.21875 21.796875 -12.625 C 21.796875 -15.101562 21.117188 -17.117188 19.765625 -18.671875 C 18.421875 -20.222656 16.609375 -21 14.328125 -21 C 12.097656 -21 10.296875 -20.222656 8.921875 -18.671875 C 7.546875 -17.117188 6.859375 -15.101562 6.859375 -12.625 C 6.859375 -10.21875 7.546875 -8.265625 8.921875 -6.765625 C 10.296875 -5.265625 12.097656 -4.515625 14.328125 -4.515625 Z M 14.328125 -4.515625 "/></g></g><g style="fill:#ffffff;fill-opacity:1;"><g transform="translate(169.628977, 53.300594)"><path style="stroke:none" d="M 13.53125 -25.515625 C 14.4375 -25.515625 15.15625 -25.320312 15.6875 -24.9375 C 16.21875 -24.550781 16.484375 -23.925781 16.484375 -23.0625 C 16.484375 -22.257812 16.21875 -21.625 15.6875 -21.15625 C 15.15625 -20.6875 14.4375 -20.453125 13.53125 -20.453125 C 11.425781 -20.453125 9.945312 -19.695312 9.09375 -18.1875 C 8.238281 -16.6875 7.8125 -14.648438 7.8125 -12.078125 L 7.8125 -2.5625 C 7.8125 -1.820312 7.546875 -1.207031 7.015625 -0.71875 C 6.484375 -0.238281 5.832031 0 5.0625 0 C 4.195312 0 3.492188 -0.238281 2.953125 -0.71875 C 2.421875 -1.207031 2.15625 -1.820312 2.15625 -2.5625 L 2.15625 -22.953125 C 2.15625 -23.753906 2.460938 -24.378906 3.078125 -24.828125 C 3.703125 -25.285156 4.363281 -25.515625 5.0625 -25.515625 C 5.757812 -25.515625 6.390625 -25.296875 6.953125 -24.859375 C 7.523438 -24.421875 7.8125 -23.785156 7.8125 -22.953125 L 7.8125 -22.65625 C 8.550781 -23.625 9.40625 -24.34375 10.375 -24.8125 C 11.34375 -25.28125 12.394531 -25.515625 13.53125 -25.515625 Z M 13.53125 -25.515625 "/></g></g><g style="fill:#ffffff;fill-opacity:1;"><g transform="translate(184.614934, 53.300594)"><path style="stroke:none" d="M 36.6875 -26.015625 C 39.03125 -26.015625 41.019531 -25.503906 42.65625 -24.484375 C 44.289062 -23.460938 45.539062 -22.039062 46.40625 -20.21875 C 47.28125 -18.40625 47.71875 -16.296875 47.71875 -13.890625 L 47.71875 -2.609375 C 47.71875 -1.835938 47.472656 -1.207031 46.984375 -0.71875 C 46.503906 -0.238281 45.796875 0 44.859375 0 C 44.023438 0 43.335938 -0.238281 42.796875 -0.71875 C 42.265625 -1.207031 42 -1.835938 42 -2.609375 L 42 -13.984375 C 42 -16.054688 41.503906 -17.742188 40.515625 -19.046875 C 39.535156 -20.347656 37.992188 -21 35.890625 -21 C 34.816406 -21 33.6875 -20.664062 32.5 -20 C 31.3125 -19.332031 30.304688 -18.363281 29.484375 -17.09375 C 28.671875 -15.820312 28.265625 -14.269531 28.265625 -12.4375 L 28.265625 -2.609375 C 28.265625 -1.835938 28.019531 -1.207031 27.53125 -0.71875 C 27.050781 -0.238281 26.363281 0 25.46875 0 C 24.625 0 23.925781 -0.238281 23.375 -0.71875 C 22.832031 -1.207031 22.5625 -1.835938 22.5625 -2.609375 L 22.5625 -13.984375 C 22.5625 -16.054688 22.066406 -17.742188 21.078125 -19.046875 C 20.085938 -20.347656 18.539062 -21 16.4375 -21 C 15.800781 -21 15.066406 -20.820312 14.234375 -20.46875 C 13.398438 -20.125 12.582031 -19.597656 11.78125 -18.890625 C 10.976562 -18.191406 10.316406 -17.304688 9.796875 -16.234375 C 9.273438 -15.171875 9.015625 -13.90625 9.015625 -12.4375 L 9.015625 -2.5 C 9.015625 -1.664062 8.710938 -1.039062 8.109375 -0.625 C 7.515625 -0.207031 6.867188 0 6.171875 0 C 5.429688 0 4.773438 -0.207031 4.203125 -0.625 C 3.640625 -1.039062 3.359375 -1.664062 3.359375 -2.5 L 3.359375 -22.953125 C 3.359375 -23.660156 3.632812 -24.265625 4.1875 -24.765625 C 4.738281 -25.265625 5.398438 -25.515625 6.171875 -25.515625 C 7.035156 -25.515625 7.722656 -25.265625 8.234375 -24.765625 C 8.753906 -24.265625 9.015625 -23.660156 9.015625 -22.953125 L 9.015625 -22.8125 C 10.390625 -24.113281 11.796875 -24.972656 13.234375 -25.390625 C 14.671875 -25.804688 16.023438 -26.015625 17.296875 -26.015625 C 19.398438 -26.015625 21.21875 -25.585938 22.75 -24.734375 C 24.289062 -23.878906 25.515625 -22.71875 26.421875 -21.25 C 27.453125 -22.519531 28.566406 -23.5 29.765625 -24.1875 C 30.972656 -24.875 32.175781 -25.347656 33.375 -25.609375 C 34.582031 -25.878906 35.6875 -26.015625 36.6875 -26.015625 Z M 36.6875 -26.015625 "/></g></g><g style="fill:#ffffff;fill-opacity:1;"><g transform="translate(236.239331, 53.300594)"><path style="stroke:none" d="M 14.328125 -4.46875 C 15.304688 -4.46875 16.257812 -4.597656 17.1875 -4.859375 C 18.125 -5.128906 18.992188 -5.582031 19.796875 -6.21875 C 20.566406 -6.914062 21.316406 -7.238281 22.046875 -7.1875 C 22.785156 -7.144531 23.394531 -6.878906 23.875 -6.390625 C 24.363281 -5.910156 24.609375 -5.3125 24.609375 -4.59375 C 24.609375 -3.875 24.257812 -3.175781 23.5625 -2.5 C 22.382812 -1.363281 20.992188 -0.570312 19.390625 -0.125 C 17.796875 0.320312 16.160156 0.53125 14.484375 0.5 C 11.878906 0.5 9.582031 -0.03125 7.59375 -1.09375 C 5.601562 -2.164062 4.046875 -3.65625 2.921875 -5.5625 C 1.804688 -7.46875 1.25 -9.675781 1.25 -12.1875 C 1.25 -14.925781 1.785156 -17.328125 2.859375 -19.390625 C 3.929688 -21.460938 5.441406 -23.082031 7.390625 -24.25 C 9.347656 -25.425781 11.660156 -26.015625 14.328125 -26.015625 C 17.003906 -26.015625 19.273438 -25.46875 21.140625 -24.375 C 23.015625 -23.289062 24.445312 -21.769531 25.4375 -19.8125 C 26.425781 -17.863281 26.921875 -15.585938 26.921875 -12.984375 C 26.921875 -12.148438 26.753906 -11.4375 26.421875 -10.84375 C 26.085938 -10.257812 25.203125 -9.96875 23.765625 -9.96875 L 7.0625 -9.96875 C 7.53125 -8.332031 8.414062 -7.003906 9.71875 -5.984375 C 11.019531 -4.972656 12.554688 -4.46875 14.328125 -4.46875 Z M 14.390625 -21.046875 C 12.453125 -21.046875 10.828125 -20.4375 9.515625 -19.21875 C 8.210938 -18 7.378906 -16.40625 7.015625 -14.4375 L 21.609375 -14.4375 C 21.441406 -16.40625 20.785156 -18 19.640625 -19.21875 C 18.503906 -20.4375 16.753906 -21.046875 14.390625 -21.046875 Z M 14.390625 -21.046875 "/></g></g></g></svg>