<svg xmlns="http://www.w3.org/2000/svg" xmlns:xlink="http://www.w3.org/1999/xlink" width="500" zoomAndPan="magnify" viewBox="0 0 375 149.999998" height="200" preserveAspectRatio="xMidYMid meet" version="1.0"><defs><g/><clipPath id="e97ee44560"><path d="M 282.175781 4.734375 L 311.878906 4.734375 L 311.878906 34.4375 L 282.175781 34.4375 Z M 282.175781 4.734375 " clip-rule="nonzero"/></clipPath><clipPath id="fd4a8ee457"><path d="M 297.027344 4.734375 C 288.824219 4.734375 282.175781 11.382812 282.175781 19.585938 C 282.175781 27.789062 288.824219 34.4375 297.027344 34.4375 C 305.230469 34.4375 311.878906 27.789062 311.878906 19.585938 C 311.878906 11.382812 305.230469 4.734375 297.027344 4.734375 Z M 297.027344 4.734375 " clip-rule="nonzero"/></clipPath><clipPath id="a485b6299b"><path d="M 0.175781 0.734375 L 29.878906 0.734375 L 29.878906 30.4375 L 0.175781 30.4375 Z M 0.175781 0.734375 " clip-rule="nonzero"/></clipPath><clipPath id="108f10e680"><path d="M 15.027344 0.734375 C 6.824219 0.734375 0.175781 7.382812 0.175781 15.585938 C 0.175781 23.789062 6.824219 30.4375 15.027344 30.4375 C 23.230469 30.4375 29.878906 23.789062 29.878906 15.585938 C 29.878906 7.382812 23.230469 0.734375 15.027344 0.734375 Z M 15.027344 0.734375 " clip-rule="nonzero"/></clipPath><clipPath id="b612868775"><rect x="0" width="30" y="0" height="31"/></clipPath><clipPath id="a23b8d8b7e"><rect x="0" width="348" y="0" height="150"/></clipPath></defs><g transform="matrix(1, 0, 0, 1, 12, -0.000000000000007527)"><g clip-path="url(#a23b8d8b7e)"><g fill="#ffffff" fill-opacity="1"><g transform="translate(1.145853, 133.411598)"><g><path d="M 42.609375 0 C 34.410156 0 28 -2.335938 23.375 -7.015625 C 18.757812 -11.691406 16.453125 -18.015625 16.453125 -25.984375 L 16.453125 -110.515625 L 43.484375 -110.515625 L 43.484375 -27.546875 C 43.484375 -26.160156 43.972656 -24.972656 44.953125 -23.984375 C 45.929688 -23.003906 47.113281 -22.515625 48.5 -22.515625 L 67.90625 -22.515625 L 67.90625 0 Z M 1.90625 -66.859375 L 1.90625 -88.859375 L 67.90625 -88.859375 L 67.90625 -66.859375 Z M 1.90625 -66.859375 "/></g></g></g><g fill="#ffffff" fill-opacity="1"><g transform="translate(65.923282, 133.411598)"><g><path d="M 45.734375 2.078125 C 37.878906 2.078125 30.945312 0.0546875 24.9375 -3.984375 C 18.9375 -8.023438 14.257812 -13.476562 10.90625 -20.34375 C 7.5625 -27.21875 5.890625 -34.988281 5.890625 -43.65625 C 5.890625 -52.65625 7.851562 -60.707031 11.78125 -67.8125 C 15.707031 -74.914062 21.28125 -80.546875 28.5 -84.703125 C 35.71875 -88.859375 44.234375 -90.9375 54.046875 -90.9375 C 63.972656 -90.9375 72.429688 -88.882812 79.421875 -84.78125 C 86.410156 -80.6875 91.78125 -75.085938 95.53125 -67.984375 C 99.28125 -60.878906 101.15625 -52.941406 101.15625 -44.171875 L 101.15625 0 L 74.828125 0 L 74.828125 -14.203125 L 74.140625 -14.203125 C 72.523438 -11.085938 70.445312 -8.285156 67.90625 -5.796875 C 65.363281 -3.316406 62.269531 -1.382812 58.625 0 C 54.988281 1.382812 50.691406 2.078125 45.734375 2.078125 Z M 53.703125 -21.125 C 57.742188 -21.125 61.289062 -22.132812 64.34375 -24.15625 C 67.40625 -26.1875 69.742188 -28.988281 71.359375 -32.5625 C 72.984375 -36.144531 73.796875 -40.128906 73.796875 -44.515625 C 73.796875 -48.785156 72.984375 -52.648438 71.359375 -56.109375 C 69.742188 -59.578125 67.40625 -62.320312 64.34375 -64.34375 C 61.289062 -66.363281 57.742188 -67.375 53.703125 -67.375 C 49.546875 -67.375 45.90625 -66.363281 42.78125 -64.34375 C 39.664062 -62.320312 37.300781 -59.578125 35.6875 -56.109375 C 34.070312 -52.648438 33.265625 -48.785156 33.265625 -44.515625 C 33.265625 -40.128906 34.070312 -36.144531 35.6875 -32.5625 C 37.300781 -28.988281 39.664062 -26.1875 42.78125 -24.15625 C 45.90625 -22.132812 49.546875 -21.125 53.703125 -21.125 Z M 53.703125 -21.125 "/></g></g></g><g fill="#ffffff" fill-opacity="1"><g transform="translate(167.420478, 133.411598)"><g><path d="M 10.046875 0 L 10.046875 -126.453125 L 36.890625 -126.453125 L 36.890625 0 Z M 10.046875 0 "/></g></g></g><g fill="#ffffff" fill-opacity="1"><g transform="translate(204.658096, 133.411598)"><g><path d="M 10.046875 0 L 10.046875 -88.859375 L 37.0625 -88.859375 L 37.0625 0 Z M 23.5625 -98.90625 C 19.289062 -98.90625 15.59375 -100.460938 12.46875 -103.578125 C 9.351562 -106.691406 7.796875 -110.382812 7.796875 -114.65625 C 7.796875 -118.9375 9.351562 -122.660156 12.46875 -125.828125 C 15.59375 -129.003906 19.289062 -130.59375 23.5625 -130.59375 C 27.832031 -130.59375 31.523438 -129.003906 34.640625 -125.828125 C 37.765625 -122.660156 39.328125 -118.9375 39.328125 -114.65625 C 39.328125 -110.382812 37.765625 -106.691406 34.640625 -103.578125 C 31.523438 -100.460938 27.832031 -98.90625 23.5625 -98.90625 Z M 23.5625 -98.90625 "/></g></g></g><g fill="#ffffff" fill-opacity="1"><g transform="translate(241.895714, 133.411598)"><g><path d="M 54.046875 2.078125 C 44.921875 2.078125 36.71875 0.0546875 29.4375 -3.984375 C 22.164062 -8.023438 16.421875 -13.566406 12.203125 -20.609375 C 7.992188 -27.648438 5.890625 -35.5625 5.890625 -44.34375 C 5.890625 -53.238281 7.992188 -61.175781 12.203125 -68.15625 C 16.421875 -75.144531 22.164062 -80.6875 29.4375 -84.78125 C 36.71875 -88.882812 44.921875 -90.9375 54.046875 -90.9375 C 63.171875 -90.9375 71.335938 -88.882812 78.546875 -84.78125 C 85.765625 -80.6875 91.484375 -75.144531 95.703125 -68.15625 C 99.921875 -61.175781 102.03125 -53.238281 102.03125 -44.34375 C 102.03125 -35.5625 99.921875 -27.648438 95.703125 -20.609375 C 91.484375 -13.566406 85.738281 -8.023438 78.46875 -3.984375 C 71.195312 0.0546875 63.054688 2.078125 54.046875 2.078125 Z M 54.046875 -21.3125 C 58.316406 -21.3125 62.007812 -22.347656 65.125 -24.421875 C 68.25 -26.503906 70.675781 -29.273438 72.40625 -32.734375 C 74.132812 -36.203125 75 -40.128906 75 -44.515625 C 75 -48.785156 74.132812 -52.648438 72.40625 -56.109375 C 70.675781 -59.578125 68.25 -62.351562 65.125 -64.4375 C 62.007812 -66.519531 58.316406 -67.5625 54.046875 -67.5625 C 49.773438 -67.5625 46.050781 -66.519531 42.875 -64.4375 C 39.695312 -62.351562 37.238281 -59.578125 35.5 -56.109375 C 33.769531 -52.648438 32.90625 -48.785156 32.90625 -44.515625 C 32.90625 -40.128906 33.769531 -36.203125 35.5 -32.734375 C 37.238281 -29.273438 39.695312 -26.503906 42.875 -24.421875 C 46.050781 -22.347656 49.773438 -21.3125 54.046875 -21.3125 Z M 54.046875 -21.3125 "/></g></g></g><g clip-path="url(#e97ee44560)"><g clip-path="url(#fd4a8ee457)"><g transform="matrix(1, 0, 0, 1, 282, 4)"><g clip-path="url(#b612868775)"><g clip-path="url(#a485b6299b)"><g clip-path="url(#108f10e680)"><path fill="#ffffff" d="M 0.175781 0.734375 L 29.878906 0.734375 L 29.878906 30.4375 L 0.175781 30.4375 Z M 0.175781 0.734375 " fill-opacity="1" fill-rule="nonzero"/></g></g></g></g></g></g></g></g></svg>