<svg xmlns="http://www.w3.org/2000/svg" xmlns:xlink="http://www.w3.org/1999/xlink" width="500" zoomAndPan="magnify" viewBox="0 0 375 374.999991" height="500" preserveAspectRatio="xMidYMid meet" version="1.0"><defs><g/><clipPath id="731550995e"><path d="M 238.859375 153.671875 L 253.160156 153.671875 L 253.160156 167.96875 L 238.859375 167.96875 Z M 238.859375 153.671875 " clip-rule="nonzero"/></clipPath><clipPath id="337496103d"><path d="M 246.007812 153.671875 C 242.0625 153.671875 238.859375 156.871094 238.859375 160.820312 C 238.859375 164.769531 242.0625 167.96875 246.007812 167.96875 C 249.957031 167.96875 253.160156 164.769531 253.160156 160.820312 C 253.160156 156.871094 249.957031 153.671875 246.007812 153.671875 Z M 246.007812 153.671875 " clip-rule="nonzero"/></clipPath><clipPath id="23f51b7995"><path d="M 0.859375 0.671875 L 15.160156 0.671875 L 15.160156 14.96875 L 0.859375 14.96875 Z M 0.859375 0.671875 " clip-rule="nonzero"/></clipPath><clipPath id="ddcec6abdc"><path d="M 8.007812 0.671875 C 4.0625 0.671875 0.859375 3.871094 0.859375 7.820312 C 0.859375 11.769531 4.0625 14.96875 8.007812 14.96875 C 11.957031 14.96875 15.160156 11.769531 15.160156 7.820312 C 15.160156 3.871094 11.957031 0.671875 8.007812 0.671875 Z M 8.007812 0.671875 " clip-rule="nonzero"/></clipPath><clipPath id="bdfbedb83f"><rect x="0" width="16" y="0" height="15"/></clipPath></defs><g fill="#ffffff" fill-opacity="1"><g transform="translate(103.556826, 215.622379)"><g><path d="M 20.515625 0 C 16.566406 0 13.476562 -1.125 11.25 -3.375 C 9.03125 -5.625 7.921875 -8.671875 7.921875 -12.515625 L 7.921875 -53.21875 L 20.9375 -53.21875 L 20.9375 -13.265625 C 20.9375 -12.597656 21.171875 -12.023438 21.640625 -11.546875 C 22.117188 -11.078125 22.691406 -10.84375 23.359375 -10.84375 L 32.6875 -10.84375 L 32.6875 0 Z M 0.921875 -32.1875 L 0.921875 -42.78125 L 32.6875 -42.78125 L 32.6875 -32.1875 Z M 0.921875 -32.1875 "/></g></g></g><g fill="#ffffff" fill-opacity="1"><g transform="translate(134.744057, 215.622379)"><g><path d="M 22.015625 1 C 18.234375 1 14.894531 0.0234375 12 -1.921875 C 9.113281 -3.867188 6.863281 -6.492188 5.25 -9.796875 C 3.632812 -13.109375 2.828125 -16.847656 2.828125 -21.015625 C 2.828125 -25.359375 3.769531 -29.238281 5.65625 -32.65625 C 7.550781 -36.070312 10.238281 -38.78125 13.71875 -40.78125 C 17.195312 -42.78125 21.296875 -43.78125 26.015625 -43.78125 C 30.804688 -43.78125 34.878906 -42.789062 38.234375 -40.8125 C 41.597656 -38.84375 44.179688 -36.148438 45.984375 -32.734375 C 47.796875 -29.316406 48.703125 -25.492188 48.703125 -21.265625 L 48.703125 0 L 36.03125 0 L 36.03125 -6.84375 L 35.703125 -6.84375 C 34.921875 -5.34375 33.914062 -3.992188 32.6875 -2.796875 C 31.46875 -1.597656 29.984375 -0.664062 28.234375 0 C 26.484375 0.664062 24.410156 1 22.015625 1 Z M 25.859375 -10.171875 C 27.804688 -10.171875 29.515625 -10.65625 30.984375 -11.625 C 32.460938 -12.601562 33.585938 -13.953125 34.359375 -15.671875 C 35.140625 -17.398438 35.53125 -19.320312 35.53125 -21.4375 C 35.53125 -23.488281 35.140625 -25.347656 34.359375 -27.015625 C 33.585938 -28.691406 32.460938 -30.015625 30.984375 -30.984375 C 29.515625 -31.953125 27.804688 -32.4375 25.859375 -32.4375 C 23.859375 -32.4375 22.101562 -31.953125 20.59375 -30.984375 C 19.09375 -30.015625 17.953125 -28.691406 17.171875 -27.015625 C 16.398438 -25.347656 16.015625 -23.488281 16.015625 -21.4375 C 16.015625 -19.320312 16.398438 -17.398438 17.171875 -15.671875 C 17.953125 -13.953125 19.09375 -12.601562 20.59375 -11.625 C 22.101562 -10.65625 23.859375 -10.171875 25.859375 -10.171875 Z M 25.859375 -10.171875 "/></g></g></g><g fill="#ffffff" fill-opacity="1"><g transform="translate(183.610097, 215.622379)"><g><path d="M 4.84375 0 L 4.84375 -60.890625 L 17.765625 -60.890625 L 17.765625 0 Z M 4.84375 0 "/></g></g></g><g fill="#ffffff" fill-opacity="1"><g transform="translate(201.538227, 215.622379)"><g><path d="M 4.84375 0 L 4.84375 -42.78125 L 17.84375 -42.78125 L 17.84375 0 Z M 11.34375 -47.625 C 9.289062 -47.625 7.507812 -48.375 6 -49.875 C 4.5 -51.382812 3.75 -53.164062 3.75 -55.21875 C 3.75 -57.28125 4.5 -59.070312 6 -60.59375 C 7.507812 -62.125 9.289062 -62.890625 11.34375 -62.890625 C 13.40625 -62.890625 15.1875 -62.125 16.6875 -60.59375 C 18.1875 -59.070312 18.9375 -57.28125 18.9375 -55.21875 C 18.9375 -53.164062 18.1875 -51.382812 16.6875 -49.875 C 15.1875 -48.375 13.40625 -47.625 11.34375 -47.625 Z M 11.34375 -47.625 "/></g></g></g><g fill="#ffffff" fill-opacity="1"><g transform="translate(219.466357, 215.622379)"><g><path d="M 26.015625 1 C 21.628906 1 17.679688 0.0234375 14.171875 -1.921875 C 10.671875 -3.867188 7.90625 -6.535156 5.875 -9.921875 C 3.84375 -13.316406 2.828125 -17.128906 2.828125 -21.359375 C 2.828125 -25.640625 3.84375 -29.457031 5.875 -32.8125 C 7.90625 -36.175781 10.671875 -38.84375 14.171875 -40.8125 C 17.679688 -42.789062 21.628906 -43.78125 26.015625 -43.78125 C 30.410156 -43.78125 34.34375 -42.789062 37.8125 -40.8125 C 41.289062 -38.84375 44.046875 -36.175781 46.078125 -32.8125 C 48.109375 -29.457031 49.125 -25.640625 49.125 -21.359375 C 49.125 -17.128906 48.109375 -13.316406 46.078125 -9.921875 C 44.046875 -6.535156 41.28125 -3.867188 37.78125 -1.921875 C 34.28125 0.0234375 30.359375 1 26.015625 1 Z M 26.015625 -10.265625 C 28.078125 -10.265625 29.859375 -10.765625 31.359375 -11.765625 C 32.859375 -12.765625 34.023438 -14.097656 34.859375 -15.765625 C 35.691406 -17.429688 36.109375 -19.320312 36.109375 -21.4375 C 36.109375 -23.488281 35.691406 -25.347656 34.859375 -27.015625 C 34.023438 -28.691406 32.859375 -30.03125 31.359375 -31.03125 C 29.859375 -32.03125 28.078125 -32.53125 26.015625 -32.53125 C 23.960938 -32.53125 22.171875 -32.03125 20.640625 -31.03125 C 19.109375 -30.03125 17.925781 -28.691406 17.09375 -27.015625 C 16.257812 -25.347656 15.84375 -23.488281 15.84375 -21.4375 C 15.84375 -19.320312 16.257812 -17.429688 17.09375 -15.765625 C 17.925781 -14.097656 19.109375 -12.765625 20.640625 -11.765625 C 22.171875 -10.765625 23.960938 -10.265625 26.015625 -10.265625 Z M 26.015625 -10.265625 "/></g></g></g><g clip-path="url(#731550995e)"><g clip-path="url(#337496103d)"><g transform="matrix(1, 0, 0, 1, 238, 153)"><g clip-path="url(#bdfbedb83f)"><g clip-path="url(#23f51b7995)"><g clip-path="url(#ddcec6abdc)"><path fill="#ffffff" d="M 0.859375 0.671875 L 15.160156 0.671875 L 15.160156 14.96875 L 0.859375 14.96875 Z M 0.859375 0.671875 " fill-opacity="1" fill-rule="nonzero"/></g></g></g></g></g></g></svg>